<?xml version="1.0" encoding="UTF-8"?>
<svg width="512" height="512" viewBox="0 0 512 512" fill="none" xmlns="http://www.w3.org/2000/svg">
  <defs>
    <linearGradient id="g" x1="128" y1="64" x2="384" y2="448" gradientUnits="userSpaceOnUse">
      <stop offset="0" stop-color="#4CC3FF"/>
      <stop offset="1" stop-color="#1B6DFF"/>
    </linearGradient>
    <clipPath id="r">
      <rect x="40" y="40" width="432" height="432" rx="88"/>
    </clipPath>
  </defs>

  <!-- base rounded square -->
  <rect x="40" y="40" width="432" height="432" rx="88" fill="url(#g)"/>

  <!-- checkerboard (canto superior direito) -->
  <g clip-path="url(#r)" opacity="0.9">
    <g transform="translate(300,84)">
      <rect width="56" height="56" fill="#CDE6FF" opacity="0.9"/>
      <rect x="56" width="56" height="56" fill="#9FD2FF" opacity="0.9"/>
      <rect x="112" width="56" height="56" fill="#CDE6FF" opacity="0.9"/>
      <rect y="56" width="56" height="56" fill="#9FD2FF" opacity="0.9"/>
      <rect x="56" y="56" width="56" height="56" fill="#CDE6FF" opacity="0.9"/>
      <rect x="112" y="56" width="56" height="56" fill="#9FD2FF" opacity="0.9"/>
      <rect y="112" width="56" height="56" fill="#CDE6FF" opacity="0.9"/>
      <rect x="56" y="112" width="56" height="56" fill="#9FD2FF" opacity="0.9"/>
      <rect x="112" y="112" width="56" height="56" fill="#CDE6FF" opacity="0.9"/>
    </g>
  </g>

  <!-- seta de download recortada -->
  <g>
    <path d="M256 322l-54-54h36v-94h36v94h36l-54 54z" fill="#FFFFFF"/>
    <rect x="206" y="338" width="100" height="20" rx="10" fill="#FFFFFF"/>
  </g>
</svg>